<svg xmlns="http://www.w3.org/2000/svg" xmlns:xlink="http://www.w3.org/1999/xlink" version="1.1" data-diagram-type="DESCRIPTION" style="background:#FFFFFF; width: 100%; height: auto; font-family: ui-sans-serif, system-ui, -apple-system, BlinkMacSystemFont, 'Segoe UI', Roboto, sans-serif;" width="1152" height="1251" viewBox="0 0 1152 1251" zoomAndPan="magnify" preserveAspectRatio="xMidYMid meet" contentStyleType="text/css"><?plantuml 1.2026.8beta1?><defs/><g font-family="sans-serif" lengthAdjust="spacing"><g class="title" data-source-line="5"><text x="15" y="35.421" fill="#000" font-size="22" textLength="1120.464" font-weight="700" font-family="'Helvetica, Arial, sans-serif'">FIGURE 2.15: EDGE-TO-CLOUD TELEMETRY PIPELINE &amp; ZERO-TRUST INGESTION TOPOLOGY</text></g><!--cluster Physical Edge: Level 4 Autonomous Vehicle--><g class="cluster" data-qualified-name="Physical Edge. Level 4 Autonomous Vehicle" id="ent0001" data-source-line="7"><polygon points="314.547,67.609,324.547,57.609,992.547,57.609,992.547,564.799,982.547,574.799,314.547,574.799,314.547,67.609" fill="#FFF7ED" style="stroke:#000;stroke-width:1;stroke-linejoin:miter;stroke-miterlimit:10;"/><line x1="982.547" y1="67.609" x2="992.547" y2="57.609" style="stroke:#000;stroke-width:1;"/><line x1="314.547" y1="67.609" x2="982.547" y2="67.609" style="stroke:#000;stroke-width:1;"/><line x1="982.547" y1="67.609" x2="982.547" y2="574.799" style="stroke:#000;stroke-width:1;"/><text x="478.262" y="83.604" fill="#000" font-size="14" textLength="342.569" font-weight="700" font-family="'Helvetica, Arial, sans-serif'">Physical Edge: Level 4 Autonomous Vehicle</text></g><!--cluster Vehicle Onboard Compute (Sub-50ms)--><g class="cluster" data-qualified-name="Physical Edge. Level 4 Autonomous Vehicle.Vehicle Onboard Compute .Sub-50ms." id="ent0005" data-source-line="12"><path d="M342.547,206.909 L642.477,206.909 A6,6 0 0 1 646.477,210.909 L653.477,229.206 L684.547,229.206 A4,4 0 0 1 688.547,233.206 L688.547,546.799 A4,4 0 0 1 684.547,550.799 L342.547,550.799 A4,4 0 0 1 338.547,546.799 L338.547,210.909 A4,4 0 0 1 342.547,206.909" style="stroke:#000;stroke-width:1;" fill="#FEF08A"/><line x1="338.547" y1="229.206" x2="653.477" y2="229.206" style="stroke:#000;stroke-width:1;"/><text x="342.547" y="221.904" fill="#000" font-size="14" textLength="301.93" font-weight="700" font-family="'Helvetica, Arial, sans-serif'">Vehicle Onboard Compute (Sub-50ms)</text></g><!--cluster Depot & Cellular Gateway (IDMZ)--><g class="cluster" data-qualified-name="Depot . Cellular Gateway .IDMZ." id="ent0009" data-source-line="19"><path d="M180,634.529 C189.623,614.131 209.174,614.169 219.973,633.341 C229.02,618.865 241.804,616.363 252.815,631.135 C267.531,614.779 281.007,615.2 293.168,634.062 C303.218,618.183 317.377,621.002 325.339,636.222 C335.692,619.712 352.644,617.309 364.651,634.28 C374.152,619.897 389.243,619.066 398.593,634.452 C412.219,617.624 425.741,615.101 439.771,633.987 C448.216,618.638 463.606,618.114 473.762,631.995 C486.301,615.461 498.341,611.491 511.8,631.025 C523.405,611.954 538.833,610.86 549.664,631.758 C562.493,617.487 574.99,615.209 586.319,633.449 C598.014,621.015 609.864,619.268 618.711,636.553 C629.016,615.338 642.294,614.033 655.924,633.513 C669.812,612.857 688.327,615.903 696.547,638.799 C697.605,637.363 698.578,637.402 699.495,638.939 C724.126,654.925 721.372,671.418 699.765,687.659 C719.671,700.555 723.397,718.607 699.786,731.524 C720.335,743.923 725.91,758.445 703.635,774.665 C719.444,796.347 717.433,812.17 689.547,820.389 C694.277,819.203 697.03,822.236 695.132,826.813 C682.037,846.927 667.748,843.197 655.576,825.839 C646.129,838.812 629.493,840.37 622.059,823.572 C611.726,840.659 593.89,840.703 582.574,824.748 C572.387,840.968 555.117,843.607 545.337,824.321 C533.459,844.489 519.91,842.34 507.112,825.265 C497.103,839.553 484.302,835.315 476.906,822.368 C465.389,839.16 453.639,840.712 440.561,824.065 C431.15,845.455 412.097,845.211 399.784,827.058 C387.165,844.848 371.477,843.11 362.219,823.668 C351.128,844.946 339.367,844.753 324.843,826.95 C314.208,839.072 300.672,839.064 293.186,823.366 C282.053,841.963 268.76,843.229 254.812,826.416 C244.221,844.803 230.644,842.781 219.659,826.819 C199.025,843.985 180.678,837.433 171.547,813.389 C175.21,813.835 176.027,816.351 174.286,819.301 C148.935,806.453 145.917,788.207 169.096,770.227 C146.381,759.808 146.34,738.362 167.978,726.801 C154.378,711.935 153.881,697.522 174.811,688.877 C147.17,670.611 146.447,646.155 178.547,631.799 C180.196,632.028 180.774,633.01 180,634.529" style="stroke:#000;stroke-width:1;" fill="#EFF6FF"/><text x="303.057" y="649.794" fill="#000" font-size="14" textLength="261.98" font-weight="700" font-family="'Helvetica, Arial, sans-serif'">Depot &amp; Cellular Gateway (IDMZ)</text></g><!--cluster Central Sovereign Cloud Lakehouse--><g class="cluster" data-qualified-name="Central Sovereign Cloud Lakehouse" id="ent0013" data-source-line="25"><polygon points="176.547,887.389,186.547,877.389,945.547,877.389,945.547,1216.279,935.547,1226.279,176.547,1226.279,176.547,887.389" fill="#F0FDF4" style="stroke:#000;stroke-width:1;stroke-linejoin:miter;stroke-miterlimit:10;"/><line x1="935.547" y1="887.389" x2="945.547" y2="877.389" style="stroke:#000;stroke-width:1;"/><line x1="176.547" y1="887.389" x2="935.547" y2="887.389" style="stroke:#000;stroke-width:1;"/><line x1="935.547" y1="887.389" x2="935.547" y2="1226.279" style="stroke:#000;stroke-width:1;"/><text x="416.575" y="903.384" fill="#000" font-size="14" textLength="280.943" font-weight="700" font-family="'Helvetica, Arial, sans-serif'">Central Sovereign Cloud Lakehouse</text></g><!--entity BMS_Sensors--><g class="entity" data-qualified-name="Physical Edge. Level 4 Autonomous Vehicle.BMS_Sensors" id="ent0002" data-source-line="8"><rect x="347.297" y="97.609" width="248.51" height="46.297" fill="#FFF" style="stroke:#000;stroke-width:1;" rx="4" ry="4"/><rect x="575.807" y="102.609" width="15" height="10" fill="#FFF" style="stroke:#000;stroke-width:1;"/><rect x="573.807" y="104.609" width="4" height="2" fill="#FFF" style="stroke:#000;stroke-width:1;"/><rect x="573.807" y="108.609" width="4" height="2" fill="#FFF" style="stroke:#000;stroke-width:1;"/><text x="362.297" y="130.604" fill="#000" font-size="14" textLength="208.51" font-family="'Helvetica, Arial, sans-serif'">High-Voltage BMS Sensor Bus</text></g><!--entity Perception_Sensors--><g class="entity" data-qualified-name="Physical Edge. Level 4 Autonomous Vehicle.Perception_Sensors" id="ent0003" data-source-line="9"><rect x="704.727" y="241.909" width="271.636" height="46.297" fill="#FFF" style="stroke:#000;stroke-width:1;" rx="4" ry="4"/><rect x="956.363" y="246.909" width="15" height="10" fill="#FFF" style="stroke:#000;stroke-width:1;"/><rect x="954.363" y="248.909" width="4" height="2" fill="#FFF" style="stroke:#000;stroke-width:1;"/><rect x="954.363" y="252.909" width="4" height="2" fill="#FFF" style="stroke:#000;stroke-width:1;"/><text x="719.727" y="274.904" fill="#000" font-size="14" textLength="231.636" font-family="'Helvetica, Arial, sans-serif'">LiDAR &amp; Camera Perception Ring</text></g><!--entity CAN_Bus--><g class="entity" data-qualified-name="Physical Edge. Level 4 Autonomous Vehicle.CAN_Bus" id="ent0004" data-source-line="10"><rect x="630.627" y="97.609" width="237.846" height="46.297" fill="#FFF" style="stroke:#000;stroke-width:1;" rx="4" ry="4"/><rect x="848.473" y="102.609" width="15" height="10" fill="#FFF" style="stroke:#000;stroke-width:1;"/><rect x="846.473" y="104.609" width="4" height="2" fill="#FFF" style="stroke:#000;stroke-width:1;"/><rect x="846.473" y="108.609" width="4" height="2" fill="#FFF" style="stroke:#000;stroke-width:1;"/><text x="645.627" y="130.604" fill="#000" font-size="14" textLength="197.846" font-family="'Helvetica, Arial, sans-serif'">CAN-Bus Vehicle Kinematics</text></g><!--entity Edge_TinyML--><g class="entity" data-qualified-name="Physical Edge. Level 4 Autonomous Vehicle.Vehicle Onboard Compute .Sub-50ms..Edge_TinyML" id="ent0006" data-source-line="13"><rect x="366.057" y="241.909" width="258.989" height="46.297" fill="#FFF" style="stroke:#000;stroke-width:1;" rx="4" ry="4"/><rect x="605.046" y="246.909" width="15" height="10" fill="#FFF" style="stroke:#000;stroke-width:1;"/><rect x="603.046" y="248.909" width="4" height="2" fill="#FFF" style="stroke:#000;stroke-width:1;"/><rect x="603.046" y="252.909" width="4" height="2" fill="#FFF" style="stroke:#000;stroke-width:1;"/><text x="381.057" y="274.904" fill="#000" font-size="14" textLength="218.989" font-family="'Helvetica, Arial, sans-serif'">In-RAM TinyML Forensic Engine</text></g><!--entity Local_Buffer--><g class="entity" data-qualified-name="Physical Edge. Level 4 Autonomous Vehicle.Vehicle Onboard Compute .Sub-50ms..Local_Buffer" id="ent0007" data-source-line="14"><rect x="360.397" y="365.199" width="270.31" height="46.297" fill="#FFF" style="stroke:#000;stroke-width:1;" rx="4" ry="4"/><rect x="610.707" y="370.199" width="15" height="10" fill="#FFF" style="stroke:#000;stroke-width:1;"/><rect x="608.707" y="372.199" width="4" height="2" fill="#FFF" style="stroke:#000;stroke-width:1;"/><rect x="608.707" y="376.199" width="4" height="2" fill="#FFF" style="stroke:#000;stroke-width:1;"/><text x="375.397" y="398.194" fill="#000" font-size="14" textLength="230.31" font-family="'Helvetica, Arial, sans-serif'">Local 4-Hour Circular Ring Buffer</text></g><!--entity Edge_HSM--><g class="entity" data-qualified-name="Physical Edge. Level 4 Autonomous Vehicle.Vehicle Onboard Compute .Sub-50ms..Edge_HSM" id="ent0008" data-source-line="15"><rect x="354.557" y="488.499" width="317.983" height="46.297" fill="#FFF" style="stroke:#000;stroke-width:1;" rx="4" ry="4"/><rect x="652.54" y="493.499" width="15" height="10" fill="#FFF" style="stroke:#000;stroke-width:1;"/><rect x="650.54" y="495.499" width="4" height="2" fill="#FFF" style="stroke:#000;stroke-width:1;"/><rect x="650.54" y="499.499" width="4" height="2" fill="#FFF" style="stroke:#000;stroke-width:1;"/><text x="369.557" y="521.494" fill="#000" font-size="14" textLength="277.983" font-family="'Helvetica, Arial, sans-serif'">Zero-Trust HSM &amp; Cryptographic Signer</text></g><!--entity Depot_WiFi--><g class="entity" data-qualified-name="Depot . Cellular Gateway .IDMZ..Depot_WiFi" id="ent0010" data-source-line="20"><rect x="179.657" y="658.799" width="257.779" height="46.297" fill="#FFF" style="stroke:#000;stroke-width:1;" rx="4" ry="4"/><rect x="417.436" y="663.799" width="15" height="10" fill="#FFF" style="stroke:#000;stroke-width:1;"/><rect x="415.436" y="665.799" width="4" height="2" fill="#FFF" style="stroke:#000;stroke-width:1;"/><rect x="415.436" y="669.799" width="4" height="2" fill="#FFF" style="stroke:#000;stroke-width:1;"/><text x="194.657" y="691.794" fill="#000" font-size="14" textLength="217.779" font-family="'Helvetica, Arial, sans-serif'">Depot Wi-Fi 6 Bulk Offload Hub</text></g><!--entity PII_Scrubber--><g class="entity" data-qualified-name="Depot . Cellular Gateway .IDMZ..PII_Scrubber" id="ent0011" data-source-line="21"><rect x="199.097" y="766.089" width="350.892" height="46.297" fill="#FFF" style="stroke:#000;stroke-width:1;" rx="4" ry="4"/><rect x="529.989" y="771.089" width="15" height="10" fill="#FFF" style="stroke:#000;stroke-width:1;"/><rect x="527.989" y="773.089" width="4" height="2" fill="#FFF" style="stroke:#000;stroke-width:1;"/><rect x="527.989" y="777.089" width="4" height="2" fill="#FFF" style="stroke:#000;stroke-width:1;"/><text x="214.097" y="799.084" fill="#000" font-size="14" textLength="310.892" font-family="'Helvetica, Arial, sans-serif'">Zero-Trust Data Scrubbing &amp; PII Anonymizer</text></g><!--entity Edge_Proxy--><g class="entity" data-qualified-name="Depot . Cellular Gateway .IDMZ..Edge_Proxy" id="ent0012" data-source-line="22"><rect x="472.927" y="658.799" width="215.232" height="46.297" fill="#FFF" style="stroke:#000;stroke-width:1;" rx="4" ry="4"/><rect x="668.16" y="663.799" width="15" height="10" fill="#FFF" style="stroke:#000;stroke-width:1;"/><rect x="666.16" y="665.799" width="4" height="2" fill="#FFF" style="stroke:#000;stroke-width:1;"/><rect x="666.16" y="669.799" width="4" height="2" fill="#FFF" style="stroke:#000;stroke-width:1;"/><text x="487.927" y="691.794" fill="#000" font-size="14" textLength="175.232" font-family="'Helvetica, Arial, sans-serif'">mTLS Secure Edge Proxy</text></g><!--entity Kafka_Mesh--><g class="entity" data-qualified-name="Central Sovereign Cloud Lakehouse.Kafka_Mesh" id="ent0014" data-source-line="26"><rect x="236.047" y="917.389" width="276.995" height="46.297" fill="#FFF" style="stroke:#000;stroke-width:1;" rx="4" ry="4"/><rect x="493.042" y="922.389" width="15" height="10" fill="#FFF" style="stroke:#000;stroke-width:1;"/><rect x="491.042" y="924.389" width="4" height="2" fill="#FFF" style="stroke:#000;stroke-width:1;"/><rect x="491.042" y="928.389" width="4" height="2" fill="#FFF" style="stroke:#000;stroke-width:1;"/><text x="251.047" y="950.384" fill="#000" font-size="14" textLength="236.995" font-family="'Helvetica, Arial, sans-serif'">Kafka Time-Series Ingestion Mesh</text></g><!--entity Lakehouse--><g class="entity" data-qualified-name="Central Sovereign Cloud Lakehouse.Lakehouse" id="ent0015" data-source-line="27"><rect x="204.707" y="1040.689" width="339.674" height="46.297" fill="#FFF" style="stroke:#000;stroke-width:1;" rx="4" ry="4"/><rect x="524.381" y="1045.689" width="15" height="10" fill="#FFF" style="stroke:#000;stroke-width:1;"/><rect x="522.381" y="1047.689" width="4" height="2" fill="#FFF" style="stroke:#000;stroke-width:1;"/><rect x="522.381" y="1051.689" width="4" height="2" fill="#FFF" style="stroke:#000;stroke-width:1;"/><text x="219.707" y="1073.684" fill="#000" font-size="14" textLength="299.674" font-family="'Helvetica, Arial, sans-serif'">Columnar Bronze / Silver / Gold Lakehouse</text></g><!--entity Margin_Engine--><g class="entity" data-qualified-name="Central Sovereign Cloud Lakehouse.Margin_Engine" id="ent0016" data-source-line="28"><rect x="192.917" y="1163.979" width="335.258" height="46.297" fill="#FFF" style="stroke:#000;stroke-width:1;" rx="4" ry="4"/><rect x="508.175" y="1168.979" width="15" height="10" fill="#FFF" style="stroke:#000;stroke-width:1;"/><rect x="506.175" y="1170.979" width="4" height="2" fill="#FFF" style="stroke:#000;stroke-width:1;"/><rect x="506.175" y="1174.979" width="4" height="2" fill="#FFF" style="stroke:#000;stroke-width:1;"/><text x="207.917" y="1196.974" fill="#000" font-size="14" textLength="295.258" font-family="'Helvetica, Arial, sans-serif'">Risk-Adjusted Margin Engine (ABB-FIN-01)</text></g><!--entity HITL_UI--><g class="entity" data-qualified-name="Central Sovereign Cloud Lakehouse.HITL_UI" id="ent0017" data-source-line="29"><rect x="563.217" y="1163.979" width="366.662" height="46.297" fill="#FFF" style="stroke:#000;stroke-width:1;" rx="4" ry="4"/><rect x="909.879" y="1168.979" width="15" height="10" fill="#FFF" style="stroke:#000;stroke-width:1;"/><rect x="907.879" y="1170.979" width="4" height="2" fill="#FFF" style="stroke:#000;stroke-width:1;"/><rect x="907.879" y="1174.979" width="4" height="2" fill="#FFF" style="stroke:#000;stroke-width:1;"/><text x="578.217" y="1196.974" fill="#000" font-size="14" textLength="326.662" font-family="'Helvetica, Arial, sans-serif'">HITL Forensic Triage Dashboard (ABB-HITL-01)</text></g><!--link BMS_Sensors to Edge_TinyML--><g class="link" data-entity-1="ent0002" data-entity-2="ent0006" id="lnk18" data-source-line="32" data-link-type="dependency"><path d="M475.347,144.299 C479.847,170.949 486.447,210.079 490.927,236.679" style="stroke:#000;stroke-width:1;" fill="none" id="BMS_Sensors-to-Edge_TinyML"/><polygon points="491.757,241.609,494.207,232.07,490.927,236.679,486.318,233.399,491.757,241.609" fill="#000" style="stroke:#000;stroke-width:1;stroke-linejoin:miter;stroke-miterlimit:10;"/><text x="483.547" y="186.976" fill="#000" font-size="13" textLength="176.401" font-family="'Helvetica, Arial, sans-serif'">Real-time micro-volt deltas</text></g><!--link Perception_Sensors to Local_Buffer--><g class="link" data-entity-1="ent0003" data-entity-2="ent0007" id="lnk19" data-source-line="33" data-link-type="dependency"><path d="M776.467,288.579 C714.687,310.299 626.444,341.332 564.584,363.072" style="stroke:#000;stroke-width:1;" fill="none" id="Perception_Sensors-to-Local_Buffer"/><polygon points="559.867,364.729,569.684,365.519,564.584,363.072,567.032,357.972,559.867,364.729" fill="#000" style="stroke:#000;stroke-width:1;stroke-linejoin:miter;stroke-miterlimit:10;"/><text x="689.547" y="331.266" fill="#000" font-size="13" textLength="187.281" font-family="'Helvetica, Arial, sans-serif'">10s pre/post incident frames</text></g><!--link CAN_Bus to Edge_TinyML--><g class="link" data-entity-1="ent0004" data-entity-2="ent0006" id="lnk20" data-source-line="34" data-link-type="dependency"><path d="M729.397,144.189 C714.187,159.699 691.997,179.519 668.547,190.909 C652.237,198.819 645.717,193.089 628.547,198.909 C595.787,209.989 565.132,225.026 539.242,239.066" style="stroke:#000;stroke-width:1;" fill="none" id="CAN_Bus-to-Edge_TinyML"/><polygon points="534.847,241.449,544.665,240.675,539.242,239.066,540.852,233.643,534.847,241.449" fill="#000" style="stroke:#000;stroke-width:1;stroke-linejoin:miter;stroke-miterlimit:10;"/><text x="696.547" y="186.976" fill="#000" font-size="13" textLength="149.938" font-family="'Helvetica, Arial, sans-serif'">Instant torque &amp; speed</text></g><!--link Edge_TinyML to Local_Buffer--><g class="link" data-entity-1="ent0006" data-entity-2="ent0007" id="lnk21" data-source-line="36" data-link-type="dependency"><path d="M369.667,288.669 C355.977,295.989 343.707,305.609 334.547,318.199 C318.447,340.339 328.91,353.64 355.28,363.94" style="stroke:#000;stroke-width:1;" fill="none" id="Edge_TinyML-to-Local_Buffer"/><polygon points="359.937,365.759,353.009,358.759,355.28,363.94,350.099,366.211,359.937,365.759" fill="#000" style="stroke:#000;stroke-width:1;stroke-linejoin:miter;stroke-miterlimit:10;"/><text x="335.547" y="331.266" fill="#000" font-size="13" textLength="169.578" font-family="'Helvetica, Arial, sans-serif'">Forensic anomaly triggers</text></g><!--link Local_Buffer to Edge_HSM--><g class="link" data-entity-1="ent0007" data-entity-2="ent0008" id="lnk22" data-source-line="37" data-link-type="dependency"><path d="M498.887,411.879 C502.127,433.669 506.265,461.543 509.485,483.293" style="stroke:#000;stroke-width:1;" fill="none" id="Local_Buffer-to-Edge_HSM"/><polygon points="510.217,488.239,512.856,478.751,509.485,483.293,504.942,479.922,510.217,488.239" fill="#000" style="stroke:#000;stroke-width:1;stroke-linejoin:miter;stroke-miterlimit:10;"/><text x="506.547" y="454.566" fill="#000" font-size="13" textLength="189.877" font-family="'Helvetica, Arial, sans-serif'">Packets signed with SHA-256</text></g><!--link Edge_HSM to Edge_Proxy--><g class="link" data-entity-1="ent0008" data-entity-2="ent0012" id="lnk23" data-source-line="38" data-link-type="dependency"><path d="M522.447,534.999 C535.257,567.179 556.927,621.614 569.767,653.854" style="stroke:#000;stroke-width:1;" fill="none" id="Edge_HSM-to-Edge_Proxy"/><polygon points="571.617,658.499,572.003,648.658,569.767,653.854,564.571,651.618,571.617,658.499" fill="#000" style="stroke:#000;stroke-width:1;stroke-linejoin:miter;stroke-miterlimit:10;"/><text x="551.547" y="603.866" fill="#000" font-size="13" textLength="244.461" font-family="'Helvetica, Arial, sans-serif'">Encrypted gRPC stream (5G / Wi-Fi 6)</text></g><!--link Edge_HSM to Depot_WiFi--><g class="link" data-entity-1="ent0008" data-entity-2="ent0010" id="lnk24" data-source-line="39" data-link-type="dependency"><path d="M469.577,535.289 C444.037,549.489 411.987,569.159 386.547,590.799 C362.577,611.169 342.606,635.151 327.866,654.511" style="stroke:#000;stroke-width:1;" fill="none" id="Edge_HSM-to-Depot_WiFi"/><polygon points="324.837,658.489,333.472,653.752,327.866,654.511,327.106,648.906,324.837,658.489" fill="#000" style="stroke:#000;stroke-width:1;stroke-linejoin:miter;stroke-miterlimit:10;"/><text x="387.547" y="603.866" fill="#000" font-size="13" textLength="148.478" font-family="'Helvetica, Arial, sans-serif'">High-volume bulk sync</text></g><!--link Depot_WiFi to PII_Scrubber--><g class="link" data-entity-1="ent0010" data-entity-2="ent0011" id="lnk25" data-source-line="41" data-link-type="dependency"><path d="M322.707,705.529 C333.837,723.299 346.622,743.693 357.752,761.453" style="stroke:#000;stroke-width:1;" fill="none" id="Depot_WiFi-to-PII_Scrubber"/><polygon points="360.407,765.689,359.017,755.939,357.752,761.453,352.238,760.187,360.407,765.689" fill="#000" style="stroke:#000;stroke-width:1;stroke-linejoin:miter;stroke-miterlimit:10;"/></g><!--link Edge_Proxy to PII_Scrubber--><g class="link" data-entity-1="ent0012" data-entity-2="ent0011" id="lnk26" data-source-line="42" data-link-type="dependency"><path d="M536.357,705.529 C501.597,723.299 457.859,745.653 423.119,763.413" style="stroke:#000;stroke-width:1;" fill="none" id="Edge_Proxy-to-PII_Scrubber"/><polygon points="418.667,765.689,428.501,765.154,423.119,763.413,424.86,758.031,418.667,765.689" fill="#000" style="stroke:#000;stroke-width:1;stroke-linejoin:miter;stroke-miterlimit:10;"/></g><!--link PII_Scrubber to Kafka_Mesh--><g class="link" data-entity-1="ent0011" data-entity-2="ent0014" id="lnk27" data-source-line="43" data-link-type="dependency"><path d="M374.547,812.589 C374.547,840.739 374.547,883.819 374.547,912.029" style="stroke:#000;stroke-width:1;" fill="none" id="PII_Scrubber-to-Kafka_Mesh"/><polygon points="374.547,917.029,378.547,908.029,374.547,912.029,370.547,908.029,374.547,917.029" fill="#000" style="stroke:#000;stroke-width:1;stroke-linejoin:miter;stroke-miterlimit:10;"/><text x="375.547" y="857.456" fill="#000" font-size="13" textLength="198.694" font-family="'Helvetica, Arial, sans-serif'">Anonymized canonical tensors</text></g><!--link Kafka_Mesh to Lakehouse--><g class="link" data-entity-1="ent0014" data-entity-2="ent0015" id="lnk28" data-source-line="44" data-link-type="dependency"><path d="M374.547,964.069 C374.547,985.859 374.547,1013.679 374.547,1035.419" style="stroke:#000;stroke-width:1;" fill="none" id="Kafka_Mesh-to-Lakehouse"/><polygon points="374.547,1040.419,378.547,1031.419,374.547,1035.419,370.547,1031.419,374.547,1040.419" fill="#000" style="stroke:#000;stroke-width:1;stroke-linejoin:miter;stroke-miterlimit:10;"/><text x="375.547" y="1006.756" fill="#000" font-size="13" textLength="201.221" font-family="'Helvetica, Arial, sans-serif'">Partitioned time-series storage</text></g><!--link Lakehouse to Margin_Engine--><g class="link" data-entity-1="ent0015" data-entity-2="ent0016" id="lnk29" data-source-line="45" data-link-type="dependency"><path d="M371.947,1087.369 C369.427,1109.149 366.221,1137.012 363.711,1158.752" style="stroke:#000;stroke-width:1;" fill="none" id="Lakehouse-to-Margin_Engine"/><polygon points="363.137,1163.719,368.143,1155.238,363.711,1158.752,360.196,1154.32,363.137,1163.719" fill="#000" style="stroke:#000;stroke-width:1;stroke-linejoin:miter;stroke-miterlimit:10;"/><text x="369.547" y="1130.046" fill="#000" font-size="13" textLength="190.677" font-family="'Helvetica, Arial, sans-serif'">Live per-mile cost calculation</text></g><!--link Lakehouse to HITL_UI--><g class="link" data-entity-1="ent0015" data-entity-2="ent0017" id="lnk30" data-source-line="46" data-link-type="dependency"><path d="M466.437,1087.359 C498.917,1095.899 535.567,1106.179 568.547,1116.979 C610.917,1130.859 653.278,1147.358 688.328,1161.678" style="stroke:#000;stroke-width:1;" fill="none" id="Lakehouse-to-HITL_UI"/><polygon points="692.957,1163.569,686.138,1156.463,688.328,1161.678,683.113,1163.868,692.957,1163.569" fill="#000" style="stroke:#000;stroke-width:1;stroke-linejoin:miter;stroke-miterlimit:10;"/><text x="613.547" y="1130.046" fill="#000" font-size="13" textLength="203.011" font-family="'Helvetica, Arial, sans-serif'">Low-confidence incident replay</text></g><?plantuml-src RLLjRzis4FwkNt7pW281gjKfagp8Xm5-aMoXyWiifKLJ30OjdMNE4gcHb3Dtw7_VaN9iPItW3oPv3n_UtVESVZ4xh13gad7XwJqNDLEi0YKRaO-a4gZWGsS_norhIXDAOUQCSBqfbWSqF6DlOQ0uAz-2PaBx6XNVzZpFS5CYXD7aSHN0-zzkxXuW64y2FrtuetZnE8OqY8DPaAw-m39Q1d4q3-0DF0MhXP-k7fCKelaaID9eCOTqiLp4YyaNpnCo9-RbxgY9juGWB_01OZnW2RSmQ8mKifADXa-uurc9FVWr3CFVWp7ywm5ydV9Yvt-IfM45md2MG892ImN3Hly9JDkjTRkbRNZCnuCLlMb4wIe6IrGPrePB0Iik2eUux7M1ey7S7rvU0H-vm8fHgLeQEbxJCKNIhsRPtZwdznAy41l9L0uZMTMDGRXAcer_rw_qjSqc2FiV1YuRuec4lnhC8ENYE8iXb8gUm3C8H464ZieMQDsUjv1OshhT-bFPA1XnbJKbKouVgi9sYyh1NDIwtMXnJwYadwf66vWcCriKTQoDB1IhwTcGy4ASi8wIOWZttVlkULafcnnwOwobiJWiIySvOGQVsH6kel7ioUOMXE5z6BQTQgC_Sp_aS4ylA_Ums6vBoNAODXl7uqBMdtd8lTVl6pF38CbKizdOjDwGl28O22cE5VzsUYHjhTiGb-3NAesj6h96eKi0bah-SxpauvOscrQ08nH6KHqJUK25b3kCN9Ons-EEzEU4rm_7uMsRpaUstJFgKuL-GlP03P4eK3ijpL3l794BMjkbqv0icqfGdOPAYcy8xwZ6v3T5VoQox52r3NjPMUYAwxq_oF-YOc0ECwP83YTHmDLWEFJ3QExtRwuTiZrUjyVE957QqL9ApgPoZ9dUjR9q5zYOymrsiNwCR7Kw1WBV_wChFtY05RBIDrG4g7X6xJgG4scia1srzwEHt0LT8T8DDtqDjS9tjQG-Sv7nd1e1MnfFgBsJhNv270bj60KQgVvka1IXQyJSyxfHFs4x5u7HL67b4OpYHO7ayLU1PpvhZ0TOag7HQD3M4ZaySxE3P3hmtz_TU-UmCyO9Yr21oAoX252ibYFGHY7DtAkx2VNxP8Fhr_2B_Wdk9jl1IWPXOzsYZoBpl4wCXRnIVOV-XxFkmfrUj4baPo_ba55fX1l5vZJ-Ef6kf2_2T9LHz56W5XFGoi1zAiWBclf28lCkiHRvIfY4Zlc1FbQe_8hJbCoi0eZNpYzxvV_09qrQc7psCocsLYePNaIZa3vyn_y0?></g></svg>