<svg xmlns="http://www.w3.org/2000/svg" xmlns:xlink="http://www.w3.org/1999/xlink" version="1.1" data-diagram-type="DESCRIPTION" style="background:#FFFFFF; width: 100%; height: auto; font-family: ui-sans-serif, system-ui, -apple-system, BlinkMacSystemFont, 'Segoe UI', Roboto, sans-serif;" width="1381" height="843" viewBox="0 0 1381 843" zoomAndPan="magnify" preserveAspectRatio="xMidYMid meet" contentStyleType="text/css"><?plantuml 1.2026.8beta1?><defs/><g font-family="sans-serif" lengthAdjust="spacing"><g class="title" data-source-line="5"><text x="211.027" y="35.421" fill="#000" font-size="22" textLength="956.946" font-weight="700" font-family="'Helvetica, Arial, sans-serif'">FIGURE 1.6: TOGAF(R) ARCHITECTURE REPOSITORY CLASSIFICATION SCHEME</text></g><!--cluster Enterprise Architecture Repository--><g class="cluster" data-qualified-name="Enterprise Architecture Repository" id="ent0001" data-source-line="7"><path d="M15,57.609 L288.659,57.609 A6,6 0 0 1 292.659,61.609 L299.659,79.906 L1362,79.906 A4,4 0 0 1 1366,83.906 L1366,824.579 A4,4 0 0 1 1362,828.579 L15,828.579 A4,4 0 0 1 11,824.579 L11,61.609 A4,4 0 0 1 15,57.609" style="stroke:#000;stroke-width:1;" fill="#FFF"/><line x1="11" y1="79.906" x2="299.659" y2="79.906" style="stroke:#000;stroke-width:1;"/><text x="15" y="72.604" fill="#000" font-size="14" textLength="275.659" font-weight="700" font-family="'Helvetica, Arial, sans-serif'">Enterprise Architecture Repository</text></g><!--cluster Architecture Metamodel & Governance--><g class="cluster" data-qualified-name="Enterprise Architecture Repository.Architecture Metamodel . Governance" id="ent0002" data-source-line="9"><path d="M39,100.609 L344.077,100.609 A6,6 0 0 1 348.077,104.609 L355.077,122.906 L770,122.906 A4,4 0 0 1 774,126.906 L774,210.199 A4,4 0 0 1 770,214.199 L39,214.199 A4,4 0 0 1 35,210.199 L35,104.609 A4,4 0 0 1 39,100.609" style="stroke:#000;stroke-width:1;" fill="#FEF9C3"/><line x1="35" y1="122.906" x2="355.077" y2="122.906" style="stroke:#000;stroke-width:1;"/><text x="39" y="115.604" fill="#000" font-size="14" textLength="307.077" font-weight="700" font-family="'Helvetica, Arial, sans-serif'">Architecture Metamodel &amp; Governance</text></g><!--cluster Architecture Landscape--><g class="cluster" data-qualified-name="Enterprise Architecture Repository.Architecture Landscape" id="ent0006" data-source-line="15"><path d="M52,247.199 L237.175,247.199 A6,6 0 0 1 241.175,251.199 L248.175,269.496 L386,269.496 A4,4 0 0 1 390,273.496 L390,637.989 A4,4 0 0 1 386,641.989 L52,641.989 A4,4 0 0 1 48,637.989 L48,251.199 A4,4 0 0 1 52,247.199" style="stroke:#000;stroke-width:1;" fill="#EFF6FF"/><line x1="48" y1="269.496" x2="248.175" y2="269.496" style="stroke:#000;stroke-width:1;"/><text x="52" y="262.194" fill="#000" font-size="14" textLength="187.175" font-weight="700" font-family="'Helvetica, Arial, sans-serif'">Architecture Landscape</text></g><!--cluster Standards Information Base (SIB)--><g class="cluster" data-qualified-name="Enterprise Architecture Repository.Standards Information Base .SIB." id="ent0010" data-source-line="21"><path d="M418,247.199 L681.146,247.199 A6,6 0 0 1 685.146,251.199 L692.146,269.496 L1338,269.496 A4,4 0 0 1 1342,273.496 L1342,356.799 A4,4 0 0 1 1338,360.799 L418,360.799 A4,4 0 0 1 414,356.799 L414,251.199 A4,4 0 0 1 418,247.199" style="stroke:#000;stroke-width:1;" fill="#F0FDF4"/><line x1="414" y1="269.496" x2="692.146" y2="269.496" style="stroke:#000;stroke-width:1;"/><text x="418" y="262.194" fill="#000" font-size="14" textLength="265.146" font-weight="700" font-family="'Helvetica, Arial, sans-serif'">Standards Information Base (SIB)</text></g><!--cluster Reference Library & Governance Log--><g class="cluster" data-qualified-name="Enterprise Architecture Repository.Reference Library . Governance Log" id="ent0014" data-source-line="27"><path d="M104,690.989 L392.22,690.989 A6,6 0 0 1 396.22,694.989 L403.22,713.286 L774,713.286 A4,4 0 0 1 778,717.286 L778,800.579 A4,4 0 0 1 774,804.579 L104,804.579 A4,4 0 0 1 100,800.579 L100,694.989 A4,4 0 0 1 104,690.989" style="stroke:#000;stroke-width:1;" fill="#FFF7ED"/><line x1="100" y1="713.286" x2="403.22" y2="713.286" style="stroke:#000;stroke-width:1;"/><text x="104" y="705.984" fill="#000" font-size="14" textLength="290.22" font-weight="700" font-family="'Helvetica, Arial, sans-serif'">Reference Library &amp; Governance Log</text></g><!--entity AF--><g class="entity" data-qualified-name="Enterprise Architecture Repository.Architecture Metamodel . Governance.AF" id="ent0003" data-source-line="10"><rect x="315.35" y="135.609" width="209.292" height="62.594" fill="#FFF" style="stroke:#000;stroke-width:1;" rx="4" ry="4"/><rect x="504.642" y="140.609" width="15" height="10" fill="#FFF" style="stroke:#000;stroke-width:1;"/><rect x="502.642" y="142.609" width="4" height="2" fill="#FFF" style="stroke:#000;stroke-width:1;"/><rect x="502.642" y="146.609" width="4" height="2" fill="#FFF" style="stroke:#000;stroke-width:1;"/><text x="330.35" y="168.604" fill="#000" font-size="14" textLength="169.292" font-family="'Helvetica, Arial, sans-serif'">Architecture Framework</text><text x="330.35" y="184.901" fill="#000" font-size="14" textLength="157.042" font-family="'Helvetica, Arial, sans-serif'">(Tailored TOGAF ADM)</text></g><!--entity ABC--><g class="entity" data-qualified-name="Enterprise Architecture Repository.Architecture Metamodel . Governance.ABC" id="ent0004" data-source-line="11"><rect x="51.27" y="135.609" width="229.458" height="62.594" fill="#FFF" style="stroke:#000;stroke-width:1;" rx="4" ry="4"/><rect x="260.728" y="140.609" width="15" height="10" fill="#FFF" style="stroke:#000;stroke-width:1;"/><rect x="258.728" y="142.609" width="4" height="2" fill="#FFF" style="stroke:#000;stroke-width:1;"/><rect x="258.728" y="146.609" width="4" height="2" fill="#FFF" style="stroke:#000;stroke-width:1;"/><text x="66.27" y="168.604" fill="#000" font-size="14" textLength="189.458" font-family="'Helvetica, Arial, sans-serif'">Architecture Board Charter</text><text x="66.27" y="184.901" fill="#000" font-size="14" textLength="162.408" font-family="'Helvetica, Arial, sans-serif'">(EAB Mandate &amp; Roles)</text></g><!--entity AP--><g class="entity" data-qualified-name="Enterprise Architecture Repository.Architecture Metamodel . Governance.AP" id="ent0005" data-source-line="12"><rect x="560" y="135.609" width="198.006" height="62.594" fill="#FFF" style="stroke:#000;stroke-width:1;" rx="4" ry="4"/><rect x="738.006" y="140.609" width="15" height="10" fill="#FFF" style="stroke:#000;stroke-width:1;"/><rect x="736.006" y="142.609" width="4" height="2" fill="#FFF" style="stroke:#000;stroke-width:1;"/><rect x="736.006" y="146.609" width="4" height="2" fill="#FFF" style="stroke:#000;stroke-width:1;"/><text x="575" y="168.604" fill="#000" font-size="14" textLength="158.006" font-family="'Helvetica, Arial, sans-serif'">Architecture Principles</text><text x="575" y="184.901" fill="#000" font-size="14" textLength="153.398" font-family="'Helvetica, Arial, sans-serif'">(5 Codified Principles)</text></g><!--entity StratArch--><g class="entity" data-qualified-name="Enterprise Architecture Repository.Architecture Landscape.StratArch" id="ent0007" data-source-line="16"><rect x="117.98" y="282.199" width="218.042" height="62.594" fill="#FFF" style="stroke:#000;stroke-width:1;" rx="4" ry="4"/><rect x="316.022" y="287.199" width="15" height="10" fill="#FFF" style="stroke:#000;stroke-width:1;"/><rect x="314.022" y="289.199" width="4" height="2" fill="#FFF" style="stroke:#000;stroke-width:1;"/><rect x="314.022" y="293.199" width="4" height="2" fill="#FFF" style="stroke:#000;stroke-width:1;"/><text x="132.98" y="315.194" fill="#000" font-size="14" textLength="154.062" font-family="'Helvetica, Arial, sans-serif'">Strategic Architecture</text><text x="132.98" y="331.491" fill="#000" font-size="14" textLength="178.042" font-family="'Helvetica, Arial, sans-serif'">(3-5 Year Target Horizon)</text></g><!--entity SegArch--><g class="entity" data-qualified-name="Enterprise Architecture Repository.Architecture Landscape.SegArch" id="ent0008" data-source-line="17"><rect x="64.04" y="423.799" width="309.924" height="62.594" fill="#FFF" style="stroke:#000;stroke-width:1;" rx="4" ry="4"/><rect x="353.964" y="428.799" width="15" height="10" fill="#FFF" style="stroke:#000;stroke-width:1;"/><rect x="351.964" y="430.799" width="4" height="2" fill="#FFF" style="stroke:#000;stroke-width:1;"/><rect x="351.964" y="434.799" width="4" height="2" fill="#FFF" style="stroke:#000;stroke-width:1;"/><text x="79.04" y="456.794" fill="#000" font-size="14" textLength="153.774" font-family="'Helvetica, Arial, sans-serif'">Segment Architecture</text><text x="79.04" y="473.091" fill="#000" font-size="14" textLength="269.924" font-family="'Helvetica, Arial, sans-serif'">(Upstream / Midstream / Downstream)</text></g><!--entity CapArch--><g class="entity" data-qualified-name="Enterprise Architecture Repository.Architecture Landscape.CapArch" id="ent0009" data-source-line="18"><rect x="167.39" y="563.389" width="203.215" height="62.594" fill="#FFF" style="stroke:#000;stroke-width:1;" rx="4" ry="4"/><rect x="350.605" y="568.389" width="15" height="10" fill="#FFF" style="stroke:#000;stroke-width:1;"/><rect x="348.605" y="570.389" width="4" height="2" fill="#FFF" style="stroke:#000;stroke-width:1;"/><rect x="348.605" y="574.389" width="4" height="2" fill="#FFF" style="stroke:#000;stroke-width:1;"/><text x="182.39" y="596.384" fill="#000" font-size="14" textLength="160.925" font-family="'Helvetica, Arial, sans-serif'">Capability Architecture</text><text x="182.39" y="612.681" fill="#000" font-size="14" textLength="163.215" font-family="'Helvetica, Arial, sans-serif'">(BMS, Telematics, DPP)</text></g><!--entity RegStd--><g class="entity" data-qualified-name="Enterprise Architecture Repository.Standards Information Base .SIB..RegStd" id="ent0011" data-source-line="22"><rect x="1076.03" y="282.199" width="249.932" height="62.594" fill="#FFF" style="stroke:#000;stroke-width:1;" rx="4" ry="4"/><rect x="1305.962" y="287.199" width="15" height="10" fill="#FFF" style="stroke:#000;stroke-width:1;"/><rect x="1303.962" y="289.199" width="4" height="2" fill="#FFF" style="stroke:#000;stroke-width:1;"/><rect x="1303.962" y="293.199" width="4" height="2" fill="#FFF" style="stroke:#000;stroke-width:1;"/><text x="1091.03" y="315.194" fill="#000" font-size="14" textLength="209.932" font-family="'Helvetica, Arial, sans-serif'">Legal &amp; Regulatory Standards</text><text x="1091.03" y="331.491" fill="#000" font-size="14" textLength="207.983" font-family="'Helvetica, Arial, sans-serif'">(EU AI Act, ISO 26262 ASIL-D)</text></g><!--entity IndStd--><g class="entity" data-qualified-name="Enterprise Architecture Repository.Standards Information Base .SIB..IndStd" id="ent0012" data-source-line="23"><rect x="429.69" y="282.199" width="298.624" height="62.594" fill="#FFF" style="stroke:#000;stroke-width:1;" rx="4" ry="4"/><rect x="708.314" y="287.199" width="15" height="10" fill="#FFF" style="stroke:#000;stroke-width:1;"/><rect x="706.314" y="289.199" width="4" height="2" fill="#FFF" style="stroke:#000;stroke-width:1;"/><rect x="706.314" y="293.199" width="4" height="2" fill="#FFF" style="stroke:#000;stroke-width:1;"/><text x="444.69" y="315.194" fill="#000" font-size="14" textLength="133.267" font-family="'Helvetica, Arial, sans-serif'">Industry Standards</text><text x="444.69" y="331.491" fill="#000" font-size="14" textLength="258.624" font-family="'Helvetica, Arial, sans-serif'">(AIAG APQP, SCOR Level 1-3, ISA-95)</text></g><!--entity DataStd--><g class="entity" data-qualified-name="Enterprise Architecture Repository.Standards Information Base .SIB..DataStd" id="ent0013" data-source-line="24"><rect x="762.99" y="282.199" width="278.027" height="62.594" fill="#FFF" style="stroke:#000;stroke-width:1;" rx="4" ry="4"/><rect x="1021.017" y="287.199" width="15" height="10" fill="#FFF" style="stroke:#000;stroke-width:1;"/><rect x="1019.017" y="289.199" width="4" height="2" fill="#FFF" style="stroke:#000;stroke-width:1;"/><rect x="1019.017" y="293.199" width="4" height="2" fill="#FFF" style="stroke:#000;stroke-width:1;"/><text x="777.99" y="315.194" fill="#000" font-size="14" textLength="200.375" font-family="'Helvetica, Arial, sans-serif'">Data &amp; Telemetry Standards</text><text x="777.99" y="331.491" fill="#000" font-size="14" textLength="238.027" font-family="'Helvetica, Arial, sans-serif'">(Protobuf, OpenAPI, JSON-LD DPP)</text></g><!--entity BBRepo--><g class="entity" data-qualified-name="Enterprise Architecture Repository.Reference Library . Governance Log.BBRepo" id="ent0015" data-source-line="28"><rect x="115.56" y="725.989" width="306.889" height="62.594" fill="#FFF" style="stroke:#000;stroke-width:1;" rx="4" ry="4"/><rect x="402.449" y="730.989" width="15" height="10" fill="#FFF" style="stroke:#000;stroke-width:1;"/><rect x="400.449" y="732.989" width="4" height="2" fill="#FFF" style="stroke:#000;stroke-width:1;"/><rect x="400.449" y="736.989" width="4" height="2" fill="#FFF" style="stroke:#000;stroke-width:1;"/><text x="130.56" y="758.984" fill="#000" font-size="14" textLength="266.889" font-family="'Helvetica, Arial, sans-serif'">Reusable Building Blocks (ABBs/SBBs)</text><text x="130.56" y="775.281" fill="#000" font-size="14" textLength="226.064" font-family="'Helvetica, Arial, sans-serif'">(In-RAM TinyML, IDMZ Gateway)</text></g><!--entity DecLog--><g class="entity" data-qualified-name="Enterprise Architecture Repository.Reference Library . Governance Log.DecLog" id="ent0016" data-source-line="29"><rect x="457.71" y="725.989" width="304.578" height="62.594" fill="#FFF" style="stroke:#000;stroke-width:1;" rx="4" ry="4"/><rect x="742.288" y="730.989" width="15" height="10" fill="#FFF" style="stroke:#000;stroke-width:1;"/><rect x="740.288" y="732.989" width="4" height="2" fill="#FFF" style="stroke:#000;stroke-width:1;"/><rect x="740.288" y="736.989" width="4" height="2" fill="#FFF" style="stroke:#000;stroke-width:1;"/><text x="472.71" y="758.984" fill="#000" font-size="14" textLength="145.838" font-family="'Helvetica, Arial, sans-serif'">Decision &amp; Audit Log</text><text x="472.71" y="775.281" fill="#000" font-size="14" textLength="264.578" font-family="'Helvetica, Arial, sans-serif'">(EAB Stage-Gate Approvals &amp; Vetoes)</text></g><!--link AF to StratArch--><g class="link" data-entity-1="ent0003" data-entity-2="ent0007" id="lnk17" data-source-line="34" data-link-type="dependency"><path d="M379.07,198.569 C346.32,223.109 304.611,254.351 271.871,278.881" style="stroke:#000;stroke-width:1;" fill="none" id="AF-to-StratArch"/><polygon points="267.87,281.879,277.471,279.684,271.871,278.881,272.674,273.282,267.87,281.879" fill="#000" style="stroke:#000;stroke-width:1;stroke-linejoin:miter;stroke-miterlimit:10;"/></g><!--link ABC to DecLog--><g class="link" data-entity-1="ent0004" data-entity-2="ent0016" id="lnk18" data-source-line="35" data-link-type="dependency"><path d="M95.72,198.559 C77.99,209.189 60.48,222.679 48,239.199 C27.65,266.149 28,278.729 28,312.499 C28,312.499 28,312.499 28,595.689 C28,621.409 27.8,634.069 48,649.989 C116.66,704.089 354.8,663.409 440,682.989 C479.31,692.019 516.45,707.609 548.67,723.399" style="stroke:#000;stroke-width:1;" fill="none" id="ABC-to-DecLog"/><polygon points="553.16,725.599,546.839,718.047,548.67,723.399,543.318,725.231,553.16,725.599" fill="#000" style="stroke:#000;stroke-width:1;stroke-linejoin:miter;stroke-miterlimit:10;"/></g><!--link AP to SegArch--><g class="link" data-entity-1="ent0005" data-entity-2="ent0008" id="lnk19" data-source-line="36" data-link-type="dependency"><path d="M601.72,198.689 C583.13,207.529 562.1,216.349 542,222.199 C486.9,238.239 460.21,205.179 414,239.199 C362.89,276.829 395.87,321.099 354,368.799 C334.61,390.879 312.465,406.807 288.095,420.817" style="stroke:#000;stroke-width:1;" fill="none" id="AP-to-SegArch"/><polygon points="283.76,423.309,293.556,422.292,288.095,420.817,289.569,415.356,283.76,423.309" fill="#000" style="stroke:#000;stroke-width:1;stroke-linejoin:miter;stroke-miterlimit:10;"/></g><!--link StratArch to SegArch--><g class="link" data-entity-1="ent0007" data-entity-2="ent0008" id="lnk20" data-source-line="37" data-link-type="dependency"><path d="M225.24,345.139 C223.91,368.409 222.366,395.288 221.036,418.538" style="stroke:#000;stroke-width:1;" fill="none" id="StratArch-to-SegArch"/><polygon points="220.75,423.529,225.257,414.773,221.036,418.538,217.271,414.316,220.75,423.529" fill="#000" style="stroke:#000;stroke-width:1;stroke-linejoin:miter;stroke-miterlimit:10;"/></g><!--link SegArch to CapArch--><g class="link" data-entity-1="ent0008" data-entity-2="ent0009" id="lnk21" data-source-line="38" data-link-type="dependency"><path d="M230.1,486.629 C238.38,509.429 247.954,535.76 256.224,558.54" style="stroke:#000;stroke-width:1;" fill="none" id="SegArch-to-CapArch"/><polygon points="257.93,563.239,258.619,553.415,256.224,558.54,251.099,556.145,257.93,563.239" fill="#000" style="stroke:#000;stroke-width:1;stroke-linejoin:miter;stroke-miterlimit:10;"/></g><!--link CapArch to BBRepo--><g class="link" data-entity-1="ent0009" data-entity-2="ent0015" id="lnk22" data-source-line="39" data-link-type="dependency"><path d="M269,626.269 C269,654.759 269,691.999 269,720.539" style="stroke:#000;stroke-width:1;stroke-dasharray:7,7;" fill="none" id="CapArch-to-BBRepo"/><polygon points="269,725.539,273,716.539,269,720.539,265,716.539,269,725.539" fill="#000" style="stroke:#000;stroke-width:1;stroke-linejoin:miter;stroke-miterlimit:10;"/><text x="270" y="671.056" fill="#000" font-size="13" textLength="76.039" font-family="'Helvetica, Arial, sans-serif'">Realized By</text></g><!--link IndStd to SegArch--><g class="link" data-entity-1="ent0012" data-entity-2="ent0008" id="lnk23" data-source-line="40" data-link-type="dependency"><path d="M511.75,345.189 C477.39,360.469 434.76,378.829 396,393.799 C369.5,404.029 345.174,412.711 318.394,421.811" style="stroke:#000;stroke-width:1;stroke-dasharray:7,7;" fill="none" id="IndStd-to-SegArch"/><polygon points="313.66,423.419,323.468,424.311,318.394,421.811,320.895,416.736,313.66,423.419" fill="#000" style="stroke:#000;stroke-width:1;stroke-linejoin:miter;stroke-miterlimit:10;"/><text x="437" y="389.866" fill="#000" font-size="13" textLength="69.075" font-family="'Helvetica, Arial, sans-serif'">Constrains</text></g><!--link DataStd to CapArch--><g class="link" data-entity-1="ent0013" data-entity-2="ent0009" id="lnk24" data-source-line="41" data-link-type="dependency"><path d="M824.42,345.239 C799.69,354.019 771.99,362.819 746,368.799 C716.34,375.619 707.05,367.739 678,376.799 C536.25,421.009 390.237,511.591 317.627,560.131" style="stroke:#000;stroke-width:1;stroke-dasharray:7,7;" fill="none" id="DataStd-to-CapArch"/><polygon points="313.47,562.909,323.175,561.233,317.627,560.131,318.729,554.582,313.47,562.909" fill="#000" style="stroke:#000;stroke-width:1;stroke-linejoin:miter;stroke-miterlimit:10;"/><text x="554" y="459.666" fill="#000" font-size="13" textLength="53.276" font-family="'Helvetica, Arial, sans-serif'">Formats</text></g><!--link RegStd to DecLog--><g class="link" data-entity-1="ent0011" data-entity-2="ent0016" id="lnk25" data-source-line="42" data-link-type="dependency"><path d="M1159.91,345.219 C1051.54,426.229 762.885,641.996 654.825,722.776" style="stroke:#000;stroke-width:1;stroke-dasharray:7,7;" fill="none" id="RegStd-to-DecLog"/><polygon points="650.82,725.769,660.423,723.584,654.825,722.776,655.634,717.177,650.82,725.769" fill="#000" style="stroke:#000;stroke-width:1;stroke-linejoin:miter;stroke-miterlimit:10;"/><text x="926" y="529.456" fill="#000" font-size="13" textLength="40.866" font-family="'Helvetica, Arial, sans-serif'">Audits</text></g><?plantuml-src TLJRRjiu47tNLyncWI81hBJTD6cRXmBKpL4XnQgaBD3TxGCZZHKYCYcGL0AtwBztTB4J1rtRy8MSSsREp1d_OUzmWz2rN4Z7t0lPSSqte5KlQrzfYHe-F3klSStxraPAscjEkAChR1_GYeelW6d1smKOBerhK8lraUDOOLk4A5xUv26yFRsuX7ArPD5nVW8izw_YClJBuIeFirKHbwlyA_W9AueuYdrMngjhAFohC0qTf-FLFMyeOoWjwauBWvInkXCMAzjhX1mxPOHLUdi4Fnm7O8yu24lHyesgiOLNi5GFg2MN5Hx1dr4OVVJF20hq-FS04v5qV5Jw_ZzvN7BHAetr90HOa9vy0sw0HRy1Uehh6lmxhgbc0eVCWvJBcbkazBbgqSnep_yDFDD2LgAZACAUWwzgiHQK-kbyHcS4_ld_cXDAQIhU3JB3ABg8eftCmcggfH7LGIyfsvbx3b-HQoYvRj32bTBYkv9JlX4r06OIR3OexKkAcyvOZMIQrv2AUlyzK8zo-Z6JOVD4vVEEtufMsErBDYyj5b1YYnjETZCB2B9i8Y3CJ73OWi8EdTQrWLYkbHvmIeB7oJZ7HUoT33D_4mNHkrqp4cpuO8iScxxbWvDWpp4CxmPO3Aoo2uYB5VnrGKzWHPoumLG8uGfRJronh7jIUSZ0OhQaONt95cJhLGu9Ff0Ftxfd0oDpFvvFF8JTymJSSYff58ul-JAjhBhjrmjOTIXP5Y_WSx6wTfFWgJi3mSHss9qSrwYHh0-9kDMSc9_l0oIg6VeJHU_3ODUV77l3RscVlLwqjP0DUAsgxWqSCyyphmjwEw6gOkdcB8LIo6sQaB8W_GUMvB97lfrAyhnXLsTzM0appEKLiBuMTaWyBmefRT0TaC2wJgi7tXeA-nkjsXcVq1G_QQCNxQFhVdfcJrghyMIEOzbqFpjk7tTuEdsEPpjhpPzmUlffhXukQToy5Tzf7RsjCurilD_XBsbV1wFJ7wjnvYcC0JkoIuX6LnfdCivuELLATsCtp2y0?></g></svg>