<svg height="720" width="1100" xmlns="http://www.w3.org/2000/svg" viewBox="0 0 1100 720" style="background:#ffffff; width: 100%; height: auto; font-family: ui-sans-serif, system-ui, -apple-system, BlinkMacSystemFont, 'Segoe UI', Roboto, sans-serif;">
  <defs>
    <linearGradient id="vtHeaderGrad" x1="0%" y1="0%" x2="100%" y2="0%">
      <stop offset="0%" stop-color="#0284c7"/>
      <stop offset="50%" stop-color="#0369a1"/>
      <stop offset="100%" stop-color="#0284c7"/>
    </linearGradient>
    <filter id="vtShadow" x="-2%" y="-2%" width="104%" height="104%">
      <feDropShadow dx="0" dy="2" stdDeviation="2.5" flood-color="#0f172a" flood-opacity="0.08"/>
    </filter>
  </defs>

  <!-- Container Box -->
  <rect x="5" y="5" width="1090" height="710" rx="12" fill="#ffffff" stroke="#cbd5e1" stroke-width="1.5"/>

  <!-- ================= TOP HEADER ================= -->
  <g transform="translate(20, 16)">
    <rect x="0" y="0" width="1060" height="42" rx="8" fill="url(#vtHeaderGrad)"/>
    <text x="530" y="27" fill="#ffffff" font-size="16" font-weight="900" letter-spacing="0.6" text-anchor="middle">VOLT-TECH VALUE STREAM MAP: SMART BATTERY &amp; CONNECTED TRUCK REALIZATION</text>
  </g>

  <!-- ================= 1. INFORMATION FLOWS ZONE (GREEN DASHED) ================= -->
  <g transform="translate(20, 68)">
    <rect x="0" y="0" width="1060" height="135" rx="10" fill="#f0fdf4" stroke="#16a34a" stroke-width="2" stroke-dasharray="6,4"/>
    <text x="530" y="22" fill="#15803d" font-size="14" font-weight="800" text-anchor="middle" letter-spacing="0.5">Information Flows (Enterprise MES &amp; OTA Silicon-to-Cloud Hub)</text>

    <!-- Left: Suppliers (Tier-1 Gigafactory &amp; Minerals) -->
    <g transform="translate(30, 34)" filter="url(#vtShadow)">
      <path d="M 0 25 L 0 10 L 18 18 L 18 10 L 36 18 L 36 10 L 54 18 L 54 0 L 130 0 L 130 60 L 0 60 Z" fill="#0f766e" stroke="#115e59" stroke-width="1.2"/>
      <text x="65" y="26" fill="#ffffff" font-size="10.5" font-weight="800" text-anchor="middle">TIER-1 PARTNER</text>
      <text x="65" y="42" fill="#ccfbf1" font-size="9" font-weight="700" text-anchor="middle">Gigafactory Cells</text>
      <text x="65" y="54" fill="#99f6e4" font-size="8" text-anchor="middle">AIAG APQP Level 3 EDI</text>
    </g>

    <!-- Center: Volt-Tech Production Control &amp; MES -->
    <g transform="translate(420, 32)" filter="url(#vtShadow)">
      <rect x="0" y="0" width="220" height="64" rx="6" fill="#0284c7" stroke="#0369a1" stroke-width="1.5"/>
      <text x="110" y="20" fill="#ffffff" font-size="11.5" font-weight="800" text-anchor="middle">PRODUCTION CONTROL</text>
      <text x="110" y="35" fill="#e0f2fe" font-size="9.5" font-weight="700" text-anchor="middle">Volt-Tech Cloud MES</text>
      <line x1="15" y1="42" x2="205" y2="42" stroke="#38bdf8" stroke-width="1" stroke-dasharray="2,2"/>
      <text x="110" y="55" fill="#f0f9ff" font-size="8.5" text-anchor="middle">Daily Bay Work Orders &amp; OTA Binaries</text>
    </g>

    <!-- Right: Customer (Orbit-Logistics Fleet HQ) -->
    <g transform="translate(890, 34)" filter="url(#vtShadow)">
      <path d="M 0 25 L 0 10 L 18 18 L 18 10 L 36 18 L 36 10 L 54 18 L 54 0 L 140 0 L 140 60 L 0 60 Z" fill="#1e40af" stroke="#1e3a8a" stroke-width="1.2"/>
      <text x="70" y="26" fill="#ffffff" font-size="10.5" font-weight="800" text-anchor="middle">ORBIT-LOGISTICS</text>
      <text x="70" y="42" fill="#dbeafe" font-size="9" font-weight="700" text-anchor="middle">Fleet Procurement</text>
      <text x="70" y="54" fill="#bfdbfe" font-size="8" text-anchor="middle">Monthly Delivery Call-Off</text>
    </g>

    <!-- Information Arrows -->
    <path d="M 890 62 L 780 62 L 765 68 L 750 62 L 645 62" fill="none" stroke="#0284c7" stroke-width="1.8"/>
    <polygon points="645,62 655,57 655,67" fill="#0284c7"/>
    <text x="745" y="54" fill="#0369a1" font-size="8" font-weight="700" text-anchor="middle">Monthly Truck Demand</text>

    <path d="M 420 62 L 310 62 L 295 68 L 280 62 L 165 62" fill="none" stroke="#0284c7" stroke-width="1.8"/>
    <polygon points="165,62 175,57 175,67" fill="#0284c7"/>
    <text x="265" y="54" fill="#0369a1" font-size="8" font-weight="700" text-anchor="middle">Weekly Cell Release (JIT)</text>

    <!-- Downward Dispatches -->
    <path d="M 460 96 L 195 125" fill="none" stroke="#15803d" stroke-width="1.2" stroke-dasharray="3,2"/>
    <path d="M 500 96 L 390 125" fill="none" stroke="#15803d" stroke-width="1.2" stroke-dasharray="3,2"/>
    <path d="M 530 96 L 585 125" fill="none" stroke="#15803d" stroke-width="1.2" stroke-dasharray="3,2"/>
    <path d="M 560 96 L 780 125" fill="none" stroke="#15803d" stroke-width="1.2" stroke-dasharray="3,2"/>
    <path d="M 600 96 L 975 125" fill="none" stroke="#15803d" stroke-width="1.2" stroke-dasharray="3,2"/>
  </g>

  <!-- ================= 2. MATERIAL FLOWS ZONE (PURPLE DASHED) ================= -->
  <g transform="translate(20, 212)">
    <rect x="0" y="0" width="1060" height="330" rx="10" fill="#faf5ff" stroke="#7e22ce" stroke-width="2" stroke-dasharray="6,4"/>
    <text x="530" y="22" fill="#6b21a8" font-size="14" font-weight="800" text-anchor="middle" letter-spacing="0.5">Physical Material Flow (Battery Pack Fabrication, Flashing &amp; Truck Mating)</text>

    <!-- Inbound Logistics Truck (Left) -->
    <g transform="translate(15, 45)">
      <rect x="0" y="0" width="36" height="22" rx="2" fill="#475569"/>
      <path d="M 36 6 L 46 6 L 49 14 L 49 22 L 36 22 Z" fill="#0284c7"/>
      <circle cx="10" cy="22" r="4" fill="#0f172a"/>
      <circle cx="42" cy="22" r="4" fill="#0f172a"/>
      <text x="25" y="-4" fill="#475569" font-size="8.5" font-weight="700" text-anchor="middle">Weekly Cells</text>
      <!-- Downward arrow -->
      <path d="M 24 28 L 24 50" stroke="#0f172a" stroke-width="2" fill="none"/>
      <polygon points="24,55 20,46 28,46" fill="#0f172a"/>
    </g>

    <!-- Inbound Receiving Inventory Triangle -->
    <g transform="translate(12, 125)">
      <polygon points="18,0 0,30 36,30" fill="#fef08a" stroke="#ca8a04" stroke-width="1.5"/>
      <text x="18" y="21" fill="#854d0e" font-size="11" font-weight="800" text-anchor="middle">I</text>
      <text x="18" y="42" fill="#0f172a" font-size="8.5" font-weight="700" text-anchor="middle">2.0 Days</text>
      <text x="18" y="52" fill="#64748b" font-size="7.5" text-anchor="middle">Cells Buffer</text>
    </g>

    <!-- Push Arrow 1 -->
    <g transform="translate(54, 130)">
      <polygon points="0,5 10,0 10,3 15,3 15,7 10,7 10,10" fill="#9333ea"/>
    </g>

    <!-- PROCESS 1: INGESTION &amp; APQP GATE -->
    <g transform="translate(72, 85)" filter="url(#vtShadow)">
      <rect x="0" y="0" width="165" height="52" rx="4" fill="#ffffff" stroke="#0284c7" stroke-width="1.5"/>
      <rect x="0" y="0" width="165" height="20" rx="4" fill="#0284c7"/>
      <text x="82" y="14" fill="#ffffff" font-size="9.5" font-weight="800" text-anchor="middle">1. CELL INGESTION</text>
      <text x="82" y="34" fill="#0f172a" font-size="8.5" font-weight="700" text-anchor="middle">APQP Level 3 Binning</text>
      <!-- Operator -->
      <g transform="translate(125, 24)">
        <circle cx="6" cy="6" r="5" fill="#e0f2fe" stroke="#0284c7" stroke-width="1"/>
        <path d="M 2 16 C 2 11 10 11 10 16 Z" fill="#0284c7"/>
        <text x="18" y="11" fill="#0284c7" font-size="8.5" font-weight="800">2</text>
      </g>
      <!-- Data Box Table -->
      <g transform="translate(0, 56)">
        <rect x="0" y="0" width="165" height="100" rx="3" fill="#f8fafc" stroke="#cbd5e1" stroke-width="1"/>
        <line x1="0" y1="20" x2="165" y2="20" stroke="#e2e8f0" stroke-width="1"/>
        <line x1="0" y1="40" x2="165" y2="40" stroke="#e2e8f0" stroke-width="1"/>
        <line x1="0" y1="60" x2="165" y2="60" stroke="#e2e8f0" stroke-width="1"/>
        <line x1="0" y1="80" x2="165" y2="80" stroke="#e2e8f0" stroke-width="1"/>
        <text x="8" y="14" fill="#334155" font-size="8.5">C/T (Cycle Time) = <tspan font-weight="700" fill="#0f172a">15 min/lot</tspan></text>
        <text x="8" y="34" fill="#334155" font-size="8.5">C/O (Changeover) = <tspan font-weight="700" fill="#0f172a">10 min</tspan></text>
        <text x="8" y="54" fill="#334155" font-size="8.5">Uptime Availability = <tspan font-weight="700" fill="#15803d">98.0%</tspan></text>
        <text x="8" y="74" fill="#334155" font-size="8.5">Scrap / Rejection = <tspan font-weight="700" fill="#15803d">0.1%</tspan></text>
        <text x="8" y="94" fill="#334155" font-size="8.5">Approval = <tspan font-weight="700">PPAPLevel3Approval</tspan></text>
      </g>
    </g>

    <!-- Push Arrow &amp; WIP 1 -->
    <g transform="translate(242, 120)">
      <polygon points="0,5 8,0 8,3 12,3 12,7 8,7 8,10" fill="#9333ea"/>
      <g transform="translate(0, 15)">
        <polygon points="12,0 0,20 24,20" fill="#fef08a" stroke="#ca8a04" stroke-width="1.2"/>
        <text x="12" y="15" fill="#854d0e" font-size="9" font-weight="800" text-anchor="middle">I</text>
        <text x="12" y="30" fill="#0f172a" font-size="8" font-weight="700" text-anchor="middle">1.5 d</text>
      </g>
      <polygon points="6,48 14,43 14,46 18,46 18,50 14,50 14,53" fill="#9333ea"/>
    </g>

    <!-- PROCESS 2: MODULAR PACK ASSEMBLY -->
    <g transform="translate(268, 85)" filter="url(#vtShadow)">
      <rect x="0" y="0" width="165" height="52" rx="4" fill="#ffffff" stroke="#0284c7" stroke-width="1.5"/>
      <rect x="0" y="0" width="165" height="20" rx="4" fill="#0284c7"/>
      <text x="82" y="14" fill="#ffffff" font-size="9.5" font-weight="800" text-anchor="middle">2. PACK ROBOTICS</text>
      <text x="82" y="34" fill="#0f172a" font-size="8.5" font-weight="700" text-anchor="middle">Laser Welding &amp; Cooling</text>
      <!-- Operator -->
      <g transform="translate(125, 24)">
        <circle cx="6" cy="6" r="5" fill="#e0f2fe" stroke="#0284c7" stroke-width="1"/>
        <path d="M 2 16 C 2 11 10 11 10 16 Z" fill="#0284c7"/>
        <text x="18" y="11" fill="#0284c7" font-size="8.5" font-weight="800">3</text>
      </g>
      <!-- Data Box Table -->
      <g transform="translate(0, 56)">
        <rect x="0" y="0" width="165" height="100" rx="3" fill="#f8fafc" stroke="#cbd5e1" stroke-width="1"/>
        <line x1="0" y1="20" x2="165" y2="20" stroke="#e2e8f0" stroke-width="1"/>
        <line x1="0" y1="40" x2="165" y2="40" stroke="#e2e8f0" stroke-width="1"/>
        <line x1="0" y1="60" x2="165" y2="60" stroke="#e2e8f0" stroke-width="1"/>
        <line x1="0" y1="80" x2="165" y2="80" stroke="#e2e8f0" stroke-width="1"/>
        <text x="8" y="14" fill="#334155" font-size="8.5">C/T (Cycle Time) = <tspan font-weight="700" fill="#0f172a">25 min/pack</tspan></text>
        <text x="8" y="34" fill="#334155" font-size="8.5">C/O (Changeover) = <tspan font-weight="700" fill="#0f172a">15 min</tspan></text>
        <text x="8" y="54" fill="#334155" font-size="8.5">Tier-1 Cell Yield = <tspan font-weight="700" fill="#15803d">99.4% (vs 81%)</tspan></text>
        <text x="8" y="74" fill="#334155" font-size="8.5">Welding Uptime = <tspan font-weight="700" fill="#15803d">95.0%</tspan></text>
        <text x="8" y="94" fill="#334155" font-size="8.5">Floor Space = <tspan font-weight="700" fill="#15803d">40% Reclaimed</tspan></text>
      </g>
    </g>

    <!-- Push Arrow &amp; WIP 2 -->
    <g transform="translate(438, 120)">
      <polygon points="0,5 8,0 8,3 12,3 12,7 8,7 8,10" fill="#9333ea"/>
      <g transform="translate(0, 15)">
        <polygon points="12,0 0,20 24,20" fill="#fef08a" stroke="#ca8a04" stroke-width="1.2"/>
        <text x="12" y="15" fill="#854d0e" font-size="9" font-weight="800" text-anchor="middle">I</text>
        <text x="12" y="30" fill="#0f172a" font-size="8" font-weight="700" text-anchor="middle">1.0 d</text>
      </g>
      <polygon points="6,48 14,43 14,46 18,46 18,50 14,50 14,53" fill="#9333ea"/>
    </g>

    <!-- PROCESS 3: IN-RAM TINYML FLASHING -->
    <g transform="translate(464, 85)" filter="url(#vtShadow)">
      <rect x="0" y="0" width="165" height="52" rx="4" fill="#ffffff" stroke="#0284c7" stroke-width="1.5"/>
      <rect x="0" y="0" width="165" height="20" rx="4" fill="#0284c7"/>
      <text x="82" y="14" fill="#ffffff" font-size="9.5" font-weight="800" text-anchor="middle">3. TINYML FLASHING</text>
      <text x="82" y="34" fill="#0f172a" font-size="8.5" font-weight="700" text-anchor="middle">ASIL-D Lockstep &amp; HSM</text>
      <!-- Operator -->
      <g transform="translate(125, 24)">
        <circle cx="6" cy="6" r="5" fill="#e0f2fe" stroke="#0284c7" stroke-width="1"/>
        <path d="M 2 16 C 2 11 10 11 10 16 Z" fill="#0284c7"/>
        <text x="18" y="11" fill="#0284c7" font-size="8.5" font-weight="800">2</text>
      </g>
      <!-- Data Box Table -->
      <g transform="translate(0, 56)">
        <rect x="0" y="0" width="165" height="100" rx="3" fill="#f8fafc" stroke="#cbd5e1" stroke-width="1"/>
        <line x1="0" y1="20" x2="165" y2="20" stroke="#e2e8f0" stroke-width="1"/>
        <line x1="0" y1="40" x2="165" y2="40" stroke="#e2e8f0" stroke-width="1"/>
        <line x1="0" y1="60" x2="165" y2="60" stroke="#e2e8f0" stroke-width="1"/>
        <line x1="0" y1="80" x2="165" y2="80" stroke="#e2e8f0" stroke-width="1"/>
        <text x="8" y="14" fill="#334155" font-size="8.5">C/T (Cycle Time) = <tspan font-weight="700" fill="#0f172a">8 min/pack</tspan></text>
        <text x="8" y="34" fill="#334155" font-size="8.5">Inference Latency = <tspan font-weight="700" fill="#15803d">8.2 ms (In-RAM)</tspan></text>
        <text x="8" y="54" fill="#334155" font-size="8.5">HSM Secure Boot = <tspan font-weight="700" fill="#15803d">100% Signed</tspan></text>
        <text x="8" y="74" fill="#334155" font-size="8.5">Flashing Uptime = <tspan font-weight="700" fill="#15803d">99.0%</tspan></text>
        <text x="8" y="94" fill="#334155" font-size="8.5">Artifact = <tspan font-weight="700">BMSFirmware_INT8.bin</tspan></text>
      </g>
    </g>

    <!-- Push Arrow &amp; WIP 3 -->
    <g transform="translate(634, 120)">
      <polygon points="0,5 8,0 8,3 12,3 12,7 8,7 8,10" fill="#9333ea"/>
      <g transform="translate(0, 15)">
        <polygon points="12,0 0,20 24,20" fill="#fef08a" stroke="#ca8a04" stroke-width="1.2"/>
        <text x="12" y="15" fill="#854d0e" font-size="9" font-weight="800" text-anchor="middle">I</text>
        <text x="12" y="30" fill="#0f172a" font-size="8" font-weight="700" text-anchor="middle">0.5 d</text>
      </g>
      <polygon points="6,48 14,43 14,46 18,46 18,50 14,50 14,53" fill="#9333ea"/>
    </g>

    <!-- PROCESS 4: HIL CO-SIMULATION GATE -->
    <g transform="translate(660, 85)" filter="url(#vtShadow)">
      <rect x="0" y="0" width="165" height="52" rx="4" fill="#ffffff" stroke="#0284c7" stroke-width="1.5"/>
      <rect x="0" y="0" width="165" height="20" rx="4" fill="#0284c7"/>
      <text x="82" y="14" fill="#ffffff" font-size="9.5" font-weight="800" text-anchor="middle">4. HIL VALIDATION</text>
      <text x="82" y="34" fill="#0f172a" font-size="8.5" font-weight="700" text-anchor="middle">Micro-Voltage Stress Bench</text>
      <!-- Operator -->
      <g transform="translate(125, 24)">
        <circle cx="6" cy="6" r="5" fill="#e0f2fe" stroke="#0284c7" stroke-width="1"/>
        <path d="M 2 16 C 2 11 10 11 10 16 Z" fill="#0284c7"/>
        <text x="18" y="11" fill="#0284c7" font-size="8.5" font-weight="800">2</text>
      </g>
      <!-- Data Box Table -->
      <g transform="translate(0, 56)">
        <rect x="0" y="0" width="165" height="100" rx="3" fill="#f8fafc" stroke="#cbd5e1" stroke-width="1"/>
        <line x1="0" y1="20" x2="165" y2="20" stroke="#e2e8f0" stroke-width="1"/>
        <line x1="0" y1="40" x2="165" y2="40" stroke="#e2e8f0" stroke-width="1"/>
        <line x1="0" y1="60" x2="165" y2="60" stroke="#e2e8f0" stroke-width="1"/>
        <line x1="0" y1="80" x2="165" y2="80" stroke="#e2e8f0" stroke-width="1"/>
        <text x="8" y="14" fill="#334155" font-size="8.5">C/T (Cycle Time) = <tspan font-weight="700" fill="#0f172a">12 min/test</tspan></text>
        <text x="8" y="34" fill="#334155" font-size="8.5">Micro-Volt Escapes = <tspan font-weight="700" fill="#15803d">0.0% (Zero Faults)</tspan></text>
        <text x="8" y="54" fill="#334155" font-size="8.5">HIL Bench Uptime = <tspan font-weight="700" fill="#15803d">97.0%</tspan></text>
        <text x="8" y="74" fill="#334155" font-size="8.5">C/O (Changeover) = <tspan font-weight="700" fill="#0f172a">5 min</tspan></text>
        <text x="8" y="94" fill="#334155" font-size="8.5">Gate Record = <tspan font-weight="700">HILValidationReport</tspan></text>
      </g>
    </g>

    <!-- Push Arrow &amp; WIP 4 -->
    <g transform="translate(830, 120)">
      <polygon points="0,5 8,0 8,3 12,3 12,7 8,7 8,10" fill="#9333ea"/>
      <g transform="translate(0, 15)">
        <polygon points="12,0 0,20 24,20" fill="#fef08a" stroke="#ca8a04" stroke-width="1.2"/>
        <text x="12" y="15" fill="#854d0e" font-size="9" font-weight="800" text-anchor="middle">I</text>
        <text x="12" y="30" fill="#0f172a" font-size="8" font-weight="700" text-anchor="middle">1.0 d</text>
      </g>
      <polygon points="6,48 14,43 14,46 18,46 18,50 14,50 14,53" fill="#9333ea"/>
    </g>

    <!-- PROCESS 5: CHASSIS INTEGRATION &amp; DPP -->
    <g transform="translate(856, 85)" filter="url(#vtShadow)">
      <rect x="0" y="0" width="165" height="52" rx="4" fill="#ffffff" stroke="#0284c7" stroke-width="1.5"/>
      <rect x="0" y="0" width="165" height="20" rx="4" fill="#0284c7"/>
      <text x="82" y="14" fill="#ffffff" font-size="9.5" font-weight="800" text-anchor="middle">5. CHASSIS &amp; DPP SIGN</text>
      <text x="82" y="34" fill="#0f172a" font-size="8.5" font-weight="700" text-anchor="middle">Robotic Mating &amp; Sign</text>
      <!-- Operator -->
      <g transform="translate(125, 24)">
        <circle cx="6" cy="6" r="5" fill="#e0f2fe" stroke="#0284c7" stroke-width="1"/>
        <path d="M 2 16 C 2 11 10 11 10 16 Z" fill="#0284c7"/>
        <text x="18" y="11" fill="#0284c7" font-size="8.5" font-weight="800">4</text>
      </g>
      <!-- Data Box Table -->
      <g transform="translate(0, 56)">
        <rect x="0" y="0" width="165" height="100" rx="3" fill="#f8fafc" stroke="#cbd5e1" stroke-width="1"/>
        <line x1="0" y1="20" x2="165" y2="20" stroke="#e2e8f0" stroke-width="1"/>
        <line x1="0" y1="40" x2="165" y2="40" stroke="#e2e8f0" stroke-width="1"/>
        <line x1="0" y1="60" x2="165" y2="60" stroke="#e2e8f0" stroke-width="1"/>
        <line x1="0" y1="80" x2="165" y2="80" stroke="#e2e8f0" stroke-width="1"/>
        <text x="8" y="14" fill="#334155" font-size="8.5">C/T (Cycle Time) = <tspan font-weight="700" fill="#0f172a">35 min/truck</tspan></text>
        <text x="8" y="34" fill="#334155" font-size="8.5">Chassis Uptime = <tspan font-weight="700" fill="#15803d">96.0%</tspan></text>
        <text x="8" y="54" fill="#334155" font-size="8.5">DPP Token Mint = <tspan font-weight="700" fill="#15803d">100% Signed</tspan></text>
        <text x="8" y="74" fill="#334155" font-size="8.5">EOL Calibration = <tspan font-weight="700" fill="#15803d">100% Pass</tspan></text>
        <text x="8" y="94" fill="#334155" font-size="8.5">Passport = <tspan font-weight="700">SmartBatteryPassport</tspan></text>
      </g>
    </g>

    <!-- Outbound Carrier Truck &amp; Staging Buffer (Far Right) -->
    <g transform="translate(1025, 45)">
      <!-- Staging buffer triangle -->
      <polygon points="16,110 2,135 30,135" fill="#fef08a" stroke="#ca8a04" stroke-width="1.2"/>
      <text x="16" y="128" fill="#854d0e" font-size="9" font-weight="800" text-anchor="middle">I</text>
      <text x="16" y="146" fill="#0f172a" font-size="7.5" font-weight="700" text-anchor="middle">2.0 d</text>

      <!-- Carrier Truck -->
      <g transform="translate(-10, 0)">
        <rect x="0" y="0" width="36" height="20" rx="2" fill="#475569"/>
        <path d="M 36 6 L 46 6 L 49 14 L 49 20 L 36 20 Z" fill="#1e40af"/>
        <circle cx="10" cy="20" r="4" fill="#0f172a"/>
        <circle cx="42" cy="20" r="4" fill="#0f172a"/>
        <path d="M 24 -2 L 24 -20" stroke="#0f172a" stroke-width="2" fill="none"/>
        <polygon points="24,-25 20,-16 28,-16" fill="#0f172a"/>
        <text x="24" y="-30" fill="#1e40af" font-size="8.5" font-weight="700" text-anchor="middle">To Orbit Depot</text>
      </g>
    </g>
  </g>

  <!-- ================= 3. LEAD TIME LADDER ZONE (ORANGE DASHED) ================= -->
  <g transform="translate(20, 550)">
    <rect x="0" y="0" width="1060" height="155" rx="10" fill="#fffbeb" stroke="#d97706" stroke-width="2" stroke-dasharray="6,4"/>
    <text x="530" y="24" fill="#b45309" font-size="14" font-weight="800" text-anchor="middle" letter-spacing="0.5">Volt-Tech Lead Time Ladder (Non-Value Added Inventory Wait vs. Value Added Processing Time)</text>

    <!-- Stepped Waveform -->
    <g transform="translate(30, 42)">
      <!-- Wait 1: 2.0 d -->
      <line x1="0" y1="12" x2="60" y2="12" stroke="#ca8a04" stroke-width="3"/>
      <text x="30" y="6" fill="#ca8a04" font-size="10" font-weight="800" text-anchor="middle">2.0 Days</text>
      <line x1="60" y1="12" x2="60" y2="44" stroke="#0f172a" stroke-width="2"/>

      <!-- Proc 1: 15 min -->
      <line x1="60" y1="44" x2="160" y2="44" stroke="#0284c7" stroke-width="3.5"/>
      <text x="110" y="58" fill="#0284c7" font-size="10" font-weight="800" text-anchor="middle">15 min (VA)</text>
      <line x1="160" y1="44" x2="160" y2="12" stroke="#0f172a" stroke-width="2"/>

      <!-- Wait 2: 1.5 d -->
      <line x1="160" y1="12" x2="225" y2="12" stroke="#ca8a04" stroke-width="3"/>
      <text x="192" y="6" fill="#ca8a04" font-size="10" font-weight="800" text-anchor="middle">1.5 d</text>
      <line x1="225" y1="12" x2="225" y2="44" stroke="#0f172a" stroke-width="2"/>

      <!-- Proc 2: 25 min -->
      <line x1="225" y1="44" x2="360" y2="44" stroke="#0284c7" stroke-width="3.5"/>
      <text x="292" y="58" fill="#0284c7" font-size="10" font-weight="800" text-anchor="middle">25 min (VA)</text>
      <line x1="360" y1="44" x2="360" y2="12" stroke="#0f172a" stroke-width="2"/>

      <!-- Wait 3: 1.0 d -->
      <line x1="360" y1="12" x2="425" y2="12" stroke="#ca8a04" stroke-width="3"/>
      <text x="392" y="6" fill="#ca8a04" font-size="10" font-weight="800" text-anchor="middle">1.0 d</text>
      <line x1="425" y1="12" x2="425" y2="44" stroke="#0f172a" stroke-width="2"/>

      <!-- Proc 3: 8 min -->
      <line x1="425" y1="44" x2="540" y2="44" stroke="#0284c7" stroke-width="3.5"/>
      <text x="482" y="58" fill="#0284c7" font-size="10" font-weight="800" text-anchor="middle">8 min (VA)</text>
      <line x1="540" y1="44" x2="540" y2="12" stroke="#0f172a" stroke-width="2"/>

      <!-- Wait 4: 0.5 d -->
      <line x1="540" y1="12" x2="595" y2="12" stroke="#ca8a04" stroke-width="3"/>
      <text x="567" y="6" fill="#ca8a04" font-size="10" font-weight="800" text-anchor="middle">0.5 d</text>
      <line x1="595" y1="12" x2="595" y2="44" stroke="#0f172a" stroke-width="2"/>

      <!-- Proc 4: 12 min -->
      <line x1="595" y1="44" x2="690" y2="44" stroke="#0284c7" stroke-width="3.5"/>
      <text x="642" y="58" fill="#0284c7" font-size="10" font-weight="800" text-anchor="middle">12 min (VA)</text>
      <line x1="690" y1="44" x2="690" y2="12" stroke="#0f172a" stroke-width="2"/>

      <!-- Wait 5: 1.0 d -->
      <line x1="690" y1="12" x2="745" y2="12" stroke="#ca8a04" stroke-width="3"/>
      <text x="717" y="6" fill="#ca8a04" font-size="10" font-weight="800" text-anchor="middle">1.0 d</text>
      <line x1="745" y1="12" x2="745" y2="44" stroke="#0f172a" stroke-width="2"/>

      <!-- Proc 5: 35 min -->
      <line x1="745" y1="44" x2="800" y2="44" stroke="#0284c7" stroke-width="3.5"/>
      <text x="772" y="58" fill="#0284c7" font-size="10" font-weight="800" text-anchor="middle">35 min</text>
      <line x1="800" y1="44" x2="800" y2="12" stroke="#0f172a" stroke-width="2"/>

      <!-- Wait 6: 2.0 d -->
      <line x1="800" y1="12" x2="835" y2="12" stroke="#ca8a04" stroke-width="3"/>
      <text x="817" y="6" fill="#ca8a04" font-size="10" font-weight="800" text-anchor="middle">2.0 d</text>
    </g>

    <!-- Summary Box on the right -->
    <g transform="translate(855, 36)">
      <rect x="0" y="0" width="190" height="76" rx="6" fill="#ffffff" stroke="#0f172a" stroke-width="1.5"/>
      <rect x="0" y="0" width="190" height="22" rx="6" fill="#0284c7"/>
      <text x="95" y="16" fill="#ffffff" font-size="10" font-weight="800" text-anchor="middle">VOLT-TECH SUMMARY</text>
      <text x="8" y="38" fill="#0f172a" font-size="8.5">Production Lead Time: <tspan font-weight="800" fill="#15803d">8.0 Days</tspan></text>
      <text x="8" y="54" fill="#0f172a" font-size="8.5">Value-Add Time: <tspan font-weight="800" fill="#0284c7">95 Min (1.58 Hrs)</tspan></text>
      <text x="8" y="69" fill="#0f172a" font-size="8.5">Field Escapes: <tspan font-weight="800" fill="#15803d">0.0% (Zero Faults)</tspan></text>
    </g>

    <!-- Footnote -->
    <g transform="translate(25, 120)">
      <text x="530" y="16" fill="#64748b" font-size="9" text-anchor="middle">Figure 4.8D: Value Stream Map 3 — Volt-Tech OEM Smart Battery Fabrication, In-RAM TinyML Flashing, HIL Testing &amp; Chassis Mating</text>
    </g>
  </g>
</svg>
